<svg width="66" height="66" viewBox="0 0 66 66" fill="none" xmlns="http://www.w3.org/2000/svg">
<path d="M60.1422 65.1422L37.6422 42.6422C35.8564 44.0707 33.8029 45.2017 31.4814 46.035C29.16 46.8683 26.6898 47.285 24.0707 47.285C17.5826 47.285 12.0922 45.0374 7.5993 40.5422C3.10645 36.0469 0.858828 30.5564 0.856447 24.0707C0.854066 17.585 3.10168 12.0945 7.5993 7.5993C12.0969 3.10406 17.5874 0.856445 24.0707 0.856445C30.5541 0.856445 36.0457 3.10406 40.5457 7.5993C45.0457 12.0945 47.2922 17.585 47.285 24.0707C47.285 26.6898 46.8684 29.16 46.035 31.4814C45.2017 33.8029 44.0707 35.8564 42.6422 37.6422L65.1422 60.1422L60.1422 65.1422ZM24.0707 40.1422C28.535 40.1422 32.3303 38.5803 35.4564 35.4564C38.5826 32.3326 40.1445 28.5374 40.1422 24.0707C40.1398 19.6041 38.5779 15.81 35.4564 12.6886C32.335 9.56716 28.5398 8.00406 24.0707 7.9993C19.6017 7.99454 15.8076 9.55764 12.6886 12.6886C9.56954 15.8195 8.00645 19.6136 7.9993 24.0707C7.99216 28.5279 9.55526 32.3231 12.6886 35.4564C15.8219 38.5898 19.616 40.1517 24.0707 40.1422ZM15.1422 27.6422V20.4993H32.9993V27.6422H15.1422Z" fill="#181818"/>
</svg>
