<svg width="64" height="64" viewBox="0 0 64 64" fill="none" xmlns="http://www.w3.org/2000/svg">
<path d="M20.4993 27.6422H16.9279C15.916 27.6422 15.0684 27.2993 14.385 26.6136C13.7017 25.9279 13.3588 25.0803 13.3564 24.0707C13.3541 23.0612 13.6969 22.2136 14.385 21.5279C15.0731 20.8422 15.9207 20.4993 16.9279 20.4993H20.4993V16.9279C20.4993 15.916 20.8422 15.0683 21.5279 14.385C22.2136 13.7017 23.0612 13.3588 24.0707 13.3564C25.0803 13.3541 25.9291 13.6969 26.6172 14.385C27.3053 15.0731 27.6469 15.9207 27.6422 16.9279V20.4993H31.2136C32.2255 20.4993 33.0743 20.8422 33.76 21.5279C34.4457 22.2136 34.7874 23.0612 34.785 24.0707C34.7826 25.0803 34.4398 25.9291 33.7564 26.6172C33.0731 27.3053 32.2255 27.6469 31.2136 27.6422H27.6422V31.2136C27.6422 32.2255 27.2993 33.0743 26.6136 33.76C25.9279 34.4457 25.0803 34.7874 24.0707 34.785C23.0612 34.7826 22.2136 34.4398 21.5279 33.7564C20.8422 33.0731 20.4993 32.2255 20.4993 31.2136V27.6422ZM24.0707 47.285C17.5826 47.285 12.0922 45.0374 7.5993 40.5422C3.10645 36.0469 0.858828 30.5564 0.856447 24.0707C0.854066 17.585 3.10168 12.0945 7.5993 7.5993C12.0969 3.10406 17.5874 0.856445 24.0707 0.856445C30.5541 0.856445 36.0457 3.10406 40.5457 7.5993C45.0457 12.0945 47.2922 17.585 47.285 24.0707C47.285 26.6898 46.8683 29.16 46.035 31.4814C45.2017 33.8029 44.0707 35.8564 42.6422 37.6422L62.6422 57.6422C63.2969 58.2969 63.6243 59.1303 63.6243 60.1422C63.6243 61.1541 63.2969 61.9874 62.6422 62.6422C61.9874 63.2969 61.1541 63.6243 60.1422 63.6243C59.1303 63.6243 58.2969 63.2969 57.6422 62.6422L37.6422 42.6422C35.8564 44.0707 33.8029 45.2017 31.4814 46.035C29.16 46.8683 26.6898 47.285 24.0707 47.285ZM24.0707 40.1422C28.535 40.1422 32.3303 38.5803 35.4564 35.4564C38.5826 32.3326 40.1445 28.5374 40.1422 24.0707C40.1398 19.6041 38.5779 15.81 35.4564 12.6886C32.335 9.56716 28.5398 8.00406 24.0707 7.9993C19.6017 7.99454 15.8076 9.55764 12.6886 12.6886C9.56954 15.8195 8.00645 19.6136 7.9993 24.0707C7.99216 28.5279 9.55526 32.3231 12.6886 35.4564C15.8219 38.5898 19.616 40.1517 24.0707 40.1422Z" fill="#181818"/>
</svg>
